<svg id="app-icon" xmlns="http://www.w3.org/2000/svg" viewBox="0 0 200 200" width="100%" height="100%"><style> :root { --primary: #3B82F6; --card-bg: #FFFFFF; --text: #F1F5F9; } .bg-color { fill: var(--primary); } .fg-color { fill: var(--card-bg); } .stroke-bg { stroke: var(--primary); } @media (prefers-color-scheme: dark) { .fg-color { fill: var(--text); } } </style><defs><clipPath id="icon-clip"><rect width="200" height="200" rx="28"></rect></clipPath></defs><rect width="200" height="200" rx="28" class="bg-color"></rect><g clip-path="url(#icon-clip)"><text x="100" y="44" font-family="'Cairo', system-ui, sans-serif" font-size="32" font-weight="900" text-anchor="middle" class="fg-color">قضايا</text><text x="100" y="82" font-family="'Cairo', system-ui, sans-serif" font-size="32" font-weight="900" text-anchor="middle" class="fg-color">مجتمعية</text><g class="fg-color stroke-bg" stroke-width="4.5" stroke-linejoin="round" stroke-linecap="round" paint-order="stroke fill"><path d="M 18 200 V 196 A 18 18 0 0 1 54 196 V 200 Z"></path><circle cx="36" cy="164" r="11"></circle><path d="M 146 200 V 196 A 18 18 0 0 1 182 196 V 200 Z"></path><circle cx="164" cy="164" r="11"></circle><path d="M 42 200 V 186 A 22 22 0 0 1 86 186 V 200 Z"></path><circle cx="64" cy="146" r="14"></circle><path d="M 114 200 V 186 A 22 22 0 0 1 158 186 V 200 Z"></path><circle cx="136" cy="146" r="14"></circle><path d="M 68 200 V 178 A 32 32 0 0 1 132 178 V 200 Z"></path><circle cx="100" cy="118" r="19"></circle></g></g></svg>